<svg width="124" height="64" viewBox="0 0 124 64" fill="none" xmlns="http://www.w3.org/2000/svg">
<g clip-path="url(#clip0_2408_13764)">
<path d="M9.73376 30.8821C10.0449 33.6803 11.133 35.8569 12.9983 37.4126C14.8985 38.9797 17.3006 39.8079 19.7628 39.745C21.8147 39.8157 23.8462 39.3176 25.6327 38.3059C27.2146 37.3464 28.621 36.1237 29.7918 34.6913L36.4778 39.745C34.5576 42.2399 32.0462 44.2171 29.1701 45.4975C26.4898 46.6348 23.607 47.2165 20.6957 47.2083C17.9893 47.2247 15.3023 46.7504 12.7649 45.8087C10.37 44.9328 8.1757 43.5842 6.31237 41.8434C4.47182 40.0964 3.00408 37.995 1.99763 35.6654C0.908427 33.1237 0.365575 30.3814 0.404277 27.6164C0.365887 24.8522 0.908732 22.1106 1.99763 19.5696C3.00392 17.2392 4.47164 15.1366 6.31237 13.3887C8.17536 11.6471 10.3698 10.2982 12.7649 9.42237C15.3023 8.48062 17.9893 8.00645 20.6957 8.02278C23.1334 7.99365 25.5521 8.45635 27.8069 9.38324C29.9187 10.2621 31.806 11.6043 33.3292 13.3109C34.9363 15.1602 36.1527 17.3156 36.9049 19.6474C37.8039 22.4467 38.2376 25.3746 38.1884 28.3142V30.8799L9.73376 30.8821ZM28.8589 23.8843C28.8069 21.0852 27.9515 18.9084 26.2932 17.354C24.6347 15.7996 22.3283 15.0224 19.3739 15.0224C16.5747 15.0224 14.359 15.8259 12.7267 17.4327C11.0944 19.0395 10.0967 21.1901 9.73376 23.8843H28.8589Z" fill="#B4B1B1"/>
<path d="M83.4219 8.95715H92.2854V14.5541H92.441C93.6625 12.3363 95.5728 10.5763 97.883 9.53983C100.21 8.5191 102.727 8.00244 105.268 8.02381C107.912 7.98225 110.534 8.49884 112.965 9.53983C115.178 10.5031 117.165 11.92 118.796 13.699C120.425 15.5014 121.669 17.6178 122.451 19.9182C123.295 22.396 123.716 24.9981 123.695 27.6157C123.717 30.2395 123.269 32.8458 122.373 35.3123C121.549 37.6012 120.296 39.7119 118.681 41.5315C117.087 43.3023 115.141 44.7198 112.966 45.692C110.668 46.7168 108.175 47.2337 105.659 47.2074C104.1 47.2255 102.545 47.0426 101.033 46.663C99.775 46.3459 98.561 45.8758 97.4176 45.2634C96.4701 44.7565 95.5832 44.1436 94.7739 43.4367C94.1165 42.8623 93.5173 42.224 92.9855 41.5315H92.7526V64.0001H83.4219V8.95715ZM114.365 27.6157C114.368 26.1839 114.118 24.7626 113.626 23.4177C113.146 22.0921 112.406 20.8757 111.448 19.8404C110.417 18.74 109.171 17.8628 107.786 17.2632C106.403 16.6635 104.91 16.3541 103.402 16.3541C101.894 16.3541 100.401 16.6635 99.0171 17.2632C97.6332 17.8628 96.387 18.74 95.3552 19.8404C94.3972 20.8751 93.6566 22.0916 93.1775 23.4177C92.1932 26.1298 92.1932 29.1014 93.1775 31.8134C93.6559 33.1398 94.3966 34.356 95.3552 35.3899C96.3867 36.4907 97.633 37.3682 99.0169 37.968C100.401 38.5679 101.893 38.8773 103.402 38.8773C104.91 38.8773 106.403 38.5679 107.787 37.968C109.171 37.3682 110.417 36.4907 111.448 35.3899C112.406 34.3556 113.147 33.1393 113.626 31.8134C114.118 30.4688 114.368 29.0475 114.365 27.6157Z" fill="#B4B1B1"/>
<path d="M64.5163 27.614L78.7488 46.2738H67.3994L58.8307 35.0458L50.2827 46.2738H38.9326L74.2213 0.000244141H85.5716L64.5163 27.614Z" fill="#B4B1B1"/>
<path d="M50.2887 8.95679H38.9375L50.4215 24.0326L56.091 16.5814L50.2887 8.95679Z" fill="#B4B1B1"/>
<path d="M9.02671 53.2624C9.02671 53.1903 9.05538 53.1212 9.10638 53.0702C9.15739 53.019 9.22657 52.9905 9.29871 52.9905H13.3877C14.2089 52.985 14.9988 53.3059 15.5836 53.8826C16.1683 54.4592 16.5003 55.2445 16.5064 56.0656C16.4879 56.705 16.2755 57.3236 15.8975 57.8395C15.5194 58.3555 14.9935 58.7444 14.3895 58.9545L16.3486 62.5875C16.3751 62.6294 16.3895 62.6779 16.3903 62.7276C16.3911 62.777 16.3782 62.826 16.3531 62.8688C16.3281 62.9117 16.2917 62.9467 16.248 62.9701C16.2043 62.9938 16.155 63.0048 16.1055 63.0021H14.6033C14.5568 63.0048 14.5107 62.994 14.4701 62.9712C14.4296 62.9485 14.3964 62.9147 14.3744 62.8737L12.4725 59.0834H10.885V62.7307C10.8825 62.802 10.8531 62.8697 10.8026 62.92C10.7521 62.9706 10.6843 62.9999 10.613 63.0021H9.29739C9.26168 63.0021 9.22633 62.9953 9.19334 62.9816C9.16034 62.9679 9.13035 62.9481 9.10508 62.9227C9.07981 62.8975 9.05977 62.8675 9.04609 62.8346C9.03243 62.8018 9.02539 62.7662 9.02539 62.7307L9.02671 53.2624ZM13.2312 57.5533C13.6108 57.5425 13.9713 57.384 14.2357 57.1115C14.5001 56.8389 14.6477 56.4739 14.6468 56.0941C14.6377 55.7242 14.4847 55.3722 14.2204 55.1134C13.9561 54.8543 13.6013 54.7086 13.2312 54.7069H10.8992V57.5513L13.2312 57.5533Z" fill="#B4B1B1"/>
<path d="M22.5531 53.2626C22.5531 53.1904 22.5818 53.1211 22.6328 53.0701C22.6837 53.0192 22.7528 52.9905 22.825 52.9905H28.6474C28.683 52.9905 28.7183 52.9975 28.7514 53.0112C28.7843 53.0249 28.8143 53.045 28.8394 53.0704C28.8646 53.0955 28.8844 53.1255 28.8981 53.1584C28.9116 53.1915 28.9187 53.2268 28.9184 53.2626V54.4351C28.9187 54.4706 28.9116 54.506 28.8981 54.5391C28.8844 54.5719 28.8646 54.602 28.8394 54.6273C28.8143 54.6525 28.7843 54.6726 28.7514 54.6863C28.7183 54.6999 28.683 54.707 28.6474 54.707H24.4126V57.0525H27.9452C28.0165 57.0549 28.084 57.0845 28.1343 57.135C28.1846 57.1853 28.214 57.2531 28.2162 57.3244V58.5115C28.2162 58.5472 28.2094 58.5825 28.1957 58.6154C28.1822 58.6483 28.1621 58.6783 28.137 58.7035C28.1118 58.7286 28.0818 58.7487 28.0489 58.7624C28.016 58.7761 27.9807 58.7831 27.9452 58.7831H24.4126V61.2862H28.6461C28.6816 61.2862 28.7169 61.2933 28.75 61.3067C28.7829 61.3204 28.8127 61.3405 28.8381 61.3656C28.8633 61.3908 28.8831 61.4208 28.8968 61.4539C28.9103 61.4868 28.9173 61.5221 28.9171 61.5579V62.7306C28.9173 62.7664 28.9103 62.8017 28.8968 62.8346C28.8831 62.8677 28.8633 62.8977 28.8381 62.9228C28.8127 62.948 28.7829 62.9681 28.75 62.9818C28.7169 62.9952 28.6816 63.0023 28.6461 63.0023H22.8236C22.7881 63.0023 22.7526 62.9952 22.7197 62.9818C22.6866 62.9681 22.6566 62.948 22.6314 62.9228C22.606 62.8977 22.5862 62.8677 22.5725 62.8348C22.5588 62.8017 22.5518 62.7664 22.5518 62.7306L22.5531 53.2626Z" fill="#B4B1B1"/>
<path d="M32.8049 62.6303L37.2538 53.0047C37.2736 52.9571 37.3074 52.9164 37.3507 52.8882C37.3939 52.86 37.4449 52.8456 37.4965 52.8469H37.6395C37.6916 52.8436 37.7435 52.8571 37.7872 52.8855C37.8311 52.914 37.8646 52.9557 37.8827 53.0047L42.2877 62.6303C42.3093 62.6703 42.3199 62.7155 42.3182 62.761C42.3164 62.8064 42.302 62.8506 42.2771 62.8887C42.2522 62.9269 42.2175 62.9574 42.1765 62.9775C42.1354 62.9973 42.09 63.0057 42.0445 63.0017H40.8C40.7089 63.007 40.6188 62.9817 40.5436 62.93C40.4683 62.8782 40.4127 62.8029 40.3849 62.7159L39.6836 61.1711H35.4084L34.7079 62.7159C34.6777 62.8011 34.6214 62.8744 34.547 62.9256C34.4726 62.977 34.3841 63.0035 34.2937 63.0017H33.0492C33.0039 63.0059 32.958 62.9975 32.917 62.9777C32.876 62.9578 32.8411 62.9271 32.8159 62.8892C32.791 62.851 32.7766 62.8069 32.7747 62.7612C32.7727 62.7157 32.783 62.6703 32.8049 62.6303ZM38.9827 59.5835L37.5524 56.4369H37.508L36.1066 59.5835H38.9827Z" fill="#B4B1B1"/>
<path d="M46.4506 53.2626C46.4504 53.2268 46.4575 53.1915 46.4709 53.1584C46.4846 53.1255 46.5045 53.0955 46.5296 53.0704C46.5548 53.045 46.5848 53.0249 46.6177 53.0112C46.6508 52.9975 46.6861 52.9905 46.7217 52.9905H48.0383C48.1093 52.9931 48.1771 53.0227 48.2274 53.073C48.2777 53.1236 48.3071 53.1913 48.3093 53.2626V61.2862H51.9564C51.9922 61.2862 52.0275 61.293 52.0606 61.3067C52.0935 61.3204 52.1235 61.3405 52.1489 61.3656C52.174 61.3908 52.1941 61.4208 52.2078 61.4537C52.2215 61.4868 52.2285 61.5221 52.2285 61.5579V62.7306C52.2285 62.7664 52.2215 62.8017 52.2078 62.8348C52.1941 62.8677 52.174 62.8977 52.1489 62.9228C52.1235 62.948 52.0935 62.9681 52.0606 62.9818C52.0275 62.9952 51.9922 63.0023 51.9564 63.0023H46.7212C46.6857 63.0023 46.6504 62.9952 46.6173 62.9818C46.5844 62.9681 46.5546 62.948 46.5292 62.9228C46.5041 62.8977 46.4842 62.8677 46.4705 62.8346C46.457 62.8017 46.45 62.7664 46.4502 62.7306L46.4506 53.2626Z" fill="#B4B1B1"/>
<path d="M58.4473 54.707H56.2592C56.2234 54.707 56.1881 54.7002 56.155 54.6865C56.1222 54.6728 56.0921 54.6527 56.0668 54.6276C56.0416 54.6022 56.0215 54.5722 56.0078 54.5393C55.9942 54.5062 55.9871 54.4706 55.9873 54.4351V53.2626C55.9871 53.2268 55.9942 53.1915 56.0078 53.1584C56.0215 53.1253 56.0416 53.0953 56.0668 53.0701C56.0921 53.0448 56.1222 53.0247 56.155 53.0112C56.1881 52.9975 56.2234 52.9905 56.2592 52.9905H62.5087C62.5809 52.9905 62.6499 53.0192 62.7009 53.0701C62.7521 53.1211 62.7806 53.1904 62.7806 53.2626V54.4351C62.7806 54.5071 62.7521 54.5764 62.7009 54.6273C62.6499 54.6783 62.5809 54.707 62.5087 54.707H60.3205V62.7306C60.3181 62.8021 60.2888 62.8696 60.2382 62.9202C60.1877 62.9705 60.1199 62.9999 60.0487 63.0023H58.7166C58.6455 62.9999 58.5778 62.9705 58.5274 62.92C58.4771 62.8696 58.4478 62.8019 58.4456 62.7306L58.4473 54.707Z" fill="#B4B1B1"/>
<path d="M70.6595 58.1828L67.3986 53.4057C67.3714 53.3651 67.356 53.3179 67.3538 53.2689C67.3516 53.2201 67.3628 53.1716 67.3865 53.1288C67.4098 53.086 67.4447 53.0504 67.4871 53.0259C67.5295 53.0016 67.5778 52.9893 67.6266 52.9906H69.0853C69.1312 52.9919 69.176 53.0043 69.216 53.0268C69.2561 53.0493 69.2901 53.0811 69.3151 53.1195L71.6032 56.4084L73.8913 53.1195C73.9162 53.0813 73.9502 53.0495 73.9899 53.027C74.0299 53.0047 74.0745 52.9922 74.1201 52.9906H75.593C75.642 52.9891 75.6906 53.001 75.7332 53.0253C75.7757 53.0495 75.8108 53.0851 75.8347 53.1279C75.8585 53.1709 75.8698 53.2195 75.8678 53.2685C75.8658 53.3175 75.8501 53.3649 75.8228 53.4057L72.5188 58.168V62.7308C72.5164 62.802 72.4868 62.8698 72.4363 62.9201C72.386 62.9706 72.318 63 72.2467 63.0022H70.9312C70.8954 63.0024 70.8601 62.9954 70.8272 62.9817C70.7941 62.9682 70.7643 62.9481 70.7389 62.923C70.7138 62.8976 70.6937 62.8678 70.6802 62.8347C70.6666 62.8018 70.6595 62.7665 70.6595 62.7308V58.1828Z" fill="#B4B1B1"/>
<path d="M123.315 1.42696C123.065 0.989823 122.702 0.628642 122.263 0.382057C121.82 0.13176 121.319 0.000244141 120.81 0.000244141C120.3 0.000244141 119.8 0.13176 119.356 0.382057C118.917 0.628177 118.552 0.989419 118.303 1.42696C118.056 1.86198 117.925 2.35346 117.923 2.85387C117.921 3.35426 118.048 3.84667 118.293 4.28345C118.539 4.72247 118.9 5.08716 119.336 5.33948C119.784 5.60029 120.294 5.73738 120.813 5.73674C121.332 5.73612 121.842 5.59779 122.29 5.3359C122.725 5.08193 123.084 4.71565 123.329 4.27544C123.571 3.83945 123.697 3.34828 123.695 2.84935C123.692 2.35041 123.561 1.86053 123.315 1.42696ZM123.151 2.86076C123.154 3.27444 123.047 3.68137 122.84 4.03988C122.637 4.3951 122.342 4.68944 121.987 4.89234C121.629 5.09667 121.225 5.20464 120.813 5.20565C120.401 5.20667 119.996 5.10069 119.638 4.89812C119.281 4.69537 118.986 4.40068 118.782 4.04478C118.576 3.68589 118.467 3.27916 118.467 2.86521C118.467 2.45125 118.576 2.04452 118.782 1.68563C118.986 1.33041 119.282 1.03715 119.639 0.837174C119.998 0.635784 120.404 0.530316 120.815 0.530939C121.227 0.531561 121.632 0.638253 121.99 0.84073C122.346 1.04101 122.641 1.33353 122.844 1.68741C123.049 2.04424 123.155 2.44926 123.151 2.86076Z" fill="#B4B1B1"/>
<path d="M121.892 2.76269C121.99 2.60938 122.039 2.43005 122.032 2.24846C122.039 2.12042 122.015 1.99264 121.962 1.8757C121.909 1.75876 121.83 1.65602 121.73 1.576C121.478 1.40251 121.176 1.31874 120.871 1.33822H119.704V4.35071H120.351V3.24803H120.867L121.456 4.35071H122.15V4.32182L121.471 3.09068C121.64 3.0245 121.787 2.91053 121.892 2.76269ZM121.252 2.62624C121.145 2.71127 121.01 2.75356 120.874 2.74491H120.352V1.84089H120.872C121.012 1.82961 121.151 1.87346 121.259 1.96311C121.303 2.00716 121.336 2.05971 121.358 2.1174C121.379 2.17509 121.389 2.23668 121.386 2.29823C121.389 2.35936 121.378 2.42045 121.355 2.47714C121.332 2.53382 121.297 2.58473 121.252 2.62624Z" fill="#B4B1B1"/>
</g>
<defs>
<clipPath id="clip0_2408_13764">
<rect width="123.586" height="64" fill="white" transform="translate(0.402344)"/>
</clipPath>
</defs>
</svg>
