<svg width="96" height="64" viewBox="0 0 96 64" fill="none" xmlns="http://www.w3.org/2000/svg">
<path d="M84.5607 6.49483C82.8586 10.6703 80.6226 14.648 78.1001 18.376C78.2448 18.356 78.3895 18.336 78.5385 18.3153C79.0764 18.2415 79.6144 18.1687 80.1525 18.0966C80.3852 18.0652 80.6178 18.0334 80.8504 18.0011C81.1851 17.9548 81.5199 17.91 81.8549 17.8655C82.0562 17.8381 82.2576 17.8107 82.465 17.7825C82.9126 17.7479 83.198 17.7525 83.6153 17.9008C81.6508 21.173 79.4097 24.2447 76.8371 27.0623C76.5361 27.3928 76.244 27.7295 75.9531 28.0691C75.4345 28.6686 74.8828 29.226 74.3183 29.782C75.8003 30.0956 75.8003 30.0956 77.3122 30.4156C77.024 31.1399 76.697 31.6433 76.2191 32.2374C76.1037 32.3826 76.1037 32.3826 75.986 32.5307C73.2337 35.9772 70.2472 39.4384 66.7547 42.1384C66.4787 42.3725 66.2029 42.6068 65.9274 42.8414C63.3773 44.9317 60.0851 47.2926 56.6698 47.0493C56.6698 46.7879 56.6698 46.5265 56.6698 46.2572C56.5205 46.3895 56.5205 46.3895 56.3682 46.5245C53.834 48.6978 50.8393 50.2244 47.4319 50.0097C46.9002 49.9634 46.4611 49.9121 45.9547 49.7424C45.9888 49.6231 46.0229 49.5038 46.0581 49.381C46.4424 47.9072 46.8113 46.0757 46.2089 44.6205C45.7857 43.9169 45.3613 43.6349 44.5956 43.3562C42.548 42.933 40.6472 43.8838 38.8828 44.829C38.3696 45.3193 38.1809 45.9224 37.9183 46.574C36.7215 49.2883 35.4221 51.7206 33.3486 53.8612C33.2196 54.0006 33.0906 54.1401 32.9577 54.2838C32.1537 55.1304 31.318 55.8675 30.3842 56.5641C30.2372 56.6747 30.2372 56.6747 30.0871 56.7875C29.5138 57.2028 28.9973 57.4748 28.3062 57.6632C26.5635 55.5199 26.1412 53.08 26.2835 50.3568C26.3115 50.0798 26.3414 49.803 26.3734 49.5264C26.4219 49.0428 26.4379 48.565 26.4448 48.079C26.4471 47.9238 26.4493 47.7686 26.4516 47.6087C26.4437 47.1687 26.4437 47.1687 26.1001 46.7325C24.7996 46.5661 23.5551 47.0274 22.4759 47.7523C22.0248 48.1396 21.75 48.3985 21.5304 48.9503C21.4682 49.3522 21.4682 49.3522 21.688 49.7424C22.494 50.5338 23.5129 51.014 24.5244 51.4849C23.1133 53.0408 21.1126 54.0891 19.0141 54.2158C16.3981 54.2802 14.2285 53.6272 12.1744 51.9404C10.7887 50.6135 10.4503 48.7034 10.0909 46.8798C10.0363 46.6171 9.96847 46.3571 9.89813 46.0982C9.713 45.2187 9.89245 44.6952 10.3517 43.9533C10.6966 43.4382 11.0657 42.9447 11.4456 42.4552C11.6238 42.2215 11.6238 42.2215 11.8057 41.9831C13.0744 40.3789 14.4528 38.8631 16.0153 37.5443C15.9525 37.4753 15.8897 37.4063 15.8251 37.3352C15.6998 37.1937 15.6998 37.1937 15.5721 37.0493C15.4487 36.9114 15.4487 36.9114 15.3228 36.7708C15.0184 36.3672 14.8116 35.9421 14.5971 35.4849C14.7553 35.4082 14.9136 35.3314 15.0766 35.2523C18.9496 33.3533 21.9485 30.8106 24.9587 27.7585C25.535 27.1759 26.1171 26.6122 26.7427 26.0827C27.1174 25.7596 27.4734 25.4185 27.8335 25.079C32.8474 20.4966 39.3513 17.2368 45.3835 14.2077C45.4841 14.1572 45.5847 14.1066 45.6884 14.0545C46.3004 13.7481 46.9143 13.4462 47.5304 13.1483C47.6497 13.09 47.769 13.0317 47.8919 12.9717C48.5754 12.6536 48.5754 12.6536 49.1062 12.8315C49.0394 12.8968 48.9725 12.9622 48.9037 13.0295C47.6852 14.1701 47.6852 14.1701 46.7425 15.5245C46.843 15.4811 46.9435 15.4376 47.047 15.3928C50.6779 13.8311 54.3743 12.4604 58.0852 11.1046C58.5648 10.929 59.0441 10.7524 59.5233 10.5755C60.2964 10.2902 61.07 10.0067 61.8442 9.72459C62.1354 9.61821 62.4265 9.51129 62.7173 9.4038C63.1191 9.25552 63.5217 9.10943 63.9245 8.96389C64.1022 8.89753 64.1022 8.89753 64.2835 8.82983C64.865 8.62243 65.221 8.52552 65.8092 8.71265C64.7062 9.82157 63.6031 10.9305 62.5001 12.0394C62.7345 11.9667 62.7345 11.9667 62.9737 11.8925C68.1667 10.2865 73.3952 8.86582 78.6812 7.60374C78.8031 7.57459 78.9251 7.54543 79.0508 7.51539C83.5036 6.4549 83.5036 6.4549 84.5607 6.49483ZM74.1712 12.8129C73.9792 12.8354 73.9792 12.8354 73.7834 12.8583C62.0947 14.1113 62.0947 14.1113 51.1547 18.0592C51.1547 17.9546 51.1547 17.8501 51.1547 17.7424C51.2688 17.7015 51.383 17.6607 51.5006 17.6186C51.9637 17.4163 52.3092 17.1779 52.7107 16.8711C53.792 16.0621 54.9142 15.3191 56.0395 14.574C55.4268 14.3687 55.0439 14.5444 54.457 14.7436C54.3455 14.7804 54.234 14.8172 54.1191 14.8551C53.7508 14.9774 53.3834 15.1022 53.016 15.2275C52.8896 15.2703 52.7631 15.313 52.6328 15.3571C47.5625 17.0764 42.6763 19.2442 37.9183 21.7028C37.9811 21.6301 38.0438 21.5574 38.1085 21.4825C38.5346 20.9863 38.9551 20.4927 39.3365 19.9602C38.51 20.2021 37.7986 20.5699 37.0516 20.9899C36.9272 21.0597 36.8028 21.1295 36.6746 21.2014C35.5037 21.8705 34.4191 22.6256 33.3486 23.4453C33.1435 23.6009 33.1435 23.6009 32.9344 23.7597C30.8605 25.3795 28.8886 27.2739 27.1841 29.2807C26.7278 29.809 26.2539 30.321 25.7809 30.8341C25.4012 31.2477 25.0377 31.6663 24.6918 32.1087C23.4155 33.6142 21.3894 34.7637 19.6395 35.6433C19.6395 35.7479 19.6395 35.8525 19.6395 35.9602C22.1298 36.6391 24.3897 36.2391 26.6559 35.0431C28.1366 34.1495 29.2509 32.8175 29.8819 31.2077C30.7481 29.1089 30.7481 29.1089 31.6153 28.6731C31.534 28.8462 31.4528 29.0194 31.3691 29.1978C31.0795 29.7606 31.0795 29.7606 31.3001 30.2572C31.4183 30.1328 31.5366 30.0085 31.6584 29.8804C32.6262 28.8755 33.5774 27.9863 34.7668 27.2473C34.8604 27.1882 34.9539 27.129 35.0503 27.0681C37.4518 25.5585 39.9448 24.4498 42.6456 23.6037C42.9609 23.4988 43.2762 23.3934 43.591 23.2869C43.591 23.3915 43.591 23.496 43.591 23.6037C43.4679 23.615 43.3448 23.6262 43.218 23.6378C42.4368 23.8075 41.7672 24.136 41.0501 24.4849C40.9027 24.5564 40.7553 24.6279 40.6034 24.7015C38.2738 25.8513 35.4461 27.5983 34.2941 30.0493C34.1369 30.5728 34.097 30.9814 34.1365 31.5245C34.6835 31.6433 34.6835 31.6433 35.2395 31.683C35.1558 31.7748 35.0721 31.8667 34.9859 31.9614C33.8883 33.0294 33.8883 33.0294 33.3486 34.376C33.2446 34.376 33.1406 34.376 33.0335 34.376C33.0205 34.2551 33.0075 34.1342 32.9941 34.0097C32.8518 33.4973 32.6969 33.3699 32.2456 33.1087C32.1416 33.1087 32.0376 33.1087 31.9304 33.1087C31.9824 32.8473 32.0344 32.5859 32.088 32.3166C31.5482 32.8196 31.5482 32.8196 31.1425 33.4255C31.4545 33.5301 31.7665 33.6346 32.088 33.7424C32.2884 34.768 32.1966 35.3228 31.7728 36.277C32.1648 36.114 32.3713 36.0082 32.61 35.6483C32.9434 35.2448 33.1934 35.1798 33.6933 35.0493C33.8353 35.0109 33.9773 34.9725 34.1236 34.933C34.2318 34.906 34.3401 34.879 34.4516 34.8513C34.0311 36.0328 33.5277 36.7809 32.4222 37.3909C31.6066 37.7487 30.762 37.8186 29.8819 37.7028C29.2909 37.4649 29.2909 37.4649 29.0941 37.0691C29.2078 37.0985 29.3216 37.1279 29.4388 37.1582C29.9021 37.2307 30.2193 37.1856 30.6698 37.0691C30.6698 37.0168 30.6698 36.9645 30.6698 36.9107C30.5634 36.9066 30.4569 36.9025 30.3473 36.8983C29.1849 36.824 29.1849 36.824 28.6804 36.4255C28.5732 36.2736 28.5732 36.2736 28.4638 36.1186C28.1518 36.2754 28.1518 36.2754 27.8335 36.4354C27.9895 36.4877 28.1455 36.54 28.3062 36.5938C28.4195 36.8683 28.5323 37.1431 28.6398 37.42C28.8544 37.8562 29.1674 38.0754 29.5668 38.3364C30.5708 38.6729 31.69 38.5162 32.7183 38.3364C32.0612 38.747 31.5696 38.9911 30.7911 38.9856C30.6646 38.985 30.5382 38.9845 30.4079 38.984C30.2766 38.9827 30.1453 38.9813 30.01 38.98C29.8102 38.9789 29.8102 38.9789 29.6065 38.9778C29.2781 38.976 28.9497 38.9731 28.6213 38.9701C29.5945 39.7873 30.9984 40.1445 32.2456 40.2374C32.3538 40.2456 32.4621 40.2537 32.5737 40.2622C35.5662 40.3819 38.2062 39.1308 40.7547 37.7028C40.6614 37.8138 40.5682 37.9249 40.4721 38.0394C39.762 38.8965 39.081 39.7315 38.5486 40.7127C38.6006 40.8172 38.6526 40.9218 38.7062 41.0295C38.8357 40.9287 38.8357 40.9287 38.9678 40.8259C42.1671 38.4463 46.2886 37.5525 50.2092 37.3859C50.3451 37.3794 50.481 37.3729 50.621 37.3661C53.6224 37.2929 56.7967 37.807 59.2403 39.6632C59.7289 40.1429 59.9853 40.5791 60.2941 41.1879C61.5603 40.6489 62.4554 39.9163 63.4456 38.9701C63.6581 38.7876 63.8714 38.606 64.0857 38.4255C65.1795 37.4625 66.097 36.3358 66.991 35.1879C67.0935 35.0578 67.0935 35.0578 67.1981 34.9251C67.5298 34.4914 67.7838 34.1335 67.8577 33.5839C65.228 32.1221 62.0389 31.3008 59.0335 31.2077C58.9247 31.2036 58.816 31.1995 58.7039 31.1953C52.7366 30.9966 46.8569 32.4717 41.5425 35.1681C41.5425 35.0635 41.5425 34.959 41.5425 34.8513C41.649 34.8125 41.7554 34.7737 41.8651 34.7337C42.4277 34.4928 42.9453 34.1893 43.4728 33.881C50.6292 29.8013 58.7202 28.4329 66.8458 29.5041C66.9951 29.523 67.1445 29.5419 67.2984 29.5614C67.7001 29.6235 67.7001 29.6235 68.2898 29.79C69.0008 29.7789 69.2407 29.481 69.7246 28.9832C69.8828 28.81 69.8828 28.81 70.0441 28.6334C70.1546 28.517 70.2652 28.4006 70.3792 28.2806C72.9699 25.7521 72.9699 25.7521 74.3183 22.6532C71.4705 22.4079 68.6503 22.2854 65.7917 22.2951C65.1955 22.2968 64.5994 22.2951 64.0032 22.2931C60.9004 22.2911 57.8556 22.4432 54.8085 23.0592C54.6078 23.0987 54.4072 23.1383 54.2005 23.179C52.3397 23.5552 50.5117 24.0509 48.6862 24.5707C48.5793 24.6011 48.4725 24.6315 48.3624 24.6628C48.0725 24.7458 47.7829 24.8297 47.4933 24.9137C47.0577 25.0295 47.0577 25.0295 46.7425 25.0295C53.536 22.1102 60.4962 20.915 67.8029 20.2504C67.934 20.2383 68.065 20.2263 68.2 20.2139C68.7451 20.1642 69.2893 20.1177 69.8354 20.0813C69.9886 20.0707 70.1417 20.0602 70.2995 20.0493C70.4243 20.0423 70.5491 20.0354 70.6777 20.0282C72.0191 19.7528 72.9853 17.9976 73.688 16.9503C75.0801 14.922 75.0801 14.922 75.7365 12.6731C75.2115 12.6731 74.6921 12.7519 74.1712 12.8129ZM29.2516 35.3265C29.3036 35.4833 29.3556 35.6402 29.4092 35.8018C29.5132 35.7495 29.6172 35.6972 29.7244 35.6433C29.6724 35.5388 29.6204 35.4342 29.5668 35.3265C29.4628 35.3265 29.3588 35.3265 29.2516 35.3265ZM24.2 37.9447C23.7302 38.0014 23.3575 38.0193 22.8938 37.9905C21.032 37.8794 19.8846 38.1582 18.3789 39.2869C18.2883 39.353 18.1977 39.419 18.1043 39.4871C17.4982 39.9311 16.9125 40.3957 16.3304 40.8711C16.2238 40.9538 16.1171 41.0365 16.0073 41.1217C15.2794 41.7054 14.7113 42.4095 14.1391 43.1452C13.8092 43.5641 13.8092 43.5641 13.5384 43.8395C13.1194 44.2923 13.0262 44.5809 12.993 45.2077C13.0919 47.3519 13.5051 49.2516 15.1289 50.7424C16.3072 51.6879 17.4015 51.9873 18.891 51.9701C19.0084 51.9694 19.1258 51.9687 19.2468 51.9679C19.5353 51.9661 19.8238 51.9632 20.1122 51.9602C20.1122 51.8033 20.1122 51.6465 20.1122 51.4849C19.8548 51.245 19.8548 51.245 19.5213 51.0295C18.6769 50.4205 18.1309 49.8393 17.9062 48.7919C17.9062 47.5524 18.4247 46.7344 19.2505 45.8364C22.1955 43.1079 26.6672 42.6531 30.4928 42.7566C31.8019 42.8171 32.9499 43.0158 34.1365 43.5641C33.6098 46.2535 32.7877 48.9439 31.1425 51.1681C31.0731 51.2665 31.0036 51.365 30.932 51.4664C30.4988 52.0407 30.0483 52.2906 29.4092 52.5938C29.3558 51.0226 29.4112 49.5522 29.7415 48.0104C29.8895 47.27 29.8762 46.7897 29.5668 46.0988C29.2852 45.7078 29.1414 45.6357 28.6706 45.5146C28.5503 45.4983 28.4301 45.482 28.3062 45.4651C28.3842 45.7053 28.3842 45.7053 28.4638 45.9503C28.7413 47.0544 28.7741 48.3712 28.5432 49.4862C28.2371 51.0843 28.293 52.997 28.9365 54.4948C32.9953 52.0251 35.4225 47.4747 36.5309 42.9744C36.6854 42.3277 36.8312 41.6792 36.9728 41.0295C36.837 41.0638 36.7011 41.0981 36.5611 41.1334C33.1947 41.9054 30.0138 41.6251 27.0456 39.7622C25.3406 38.5519 25.3406 38.5519 24.9971 37.8612C24.6522 37.8522 24.6522 37.8522 24.2 37.9447ZM41.8577 40.5542C42.4166 40.7415 42.7018 40.659 43.2759 40.5542C45.5974 40.3909 48.1413 40.7381 49.9593 42.3086C50.6841 43.0677 51.081 43.807 51.3122 44.8315C52.7972 44.0974 54.0514 43.1895 54.7789 41.6632C52.5612 39.9867 50.1403 39.541 47.4221 39.5443C47.2286 39.5444 47.0351 39.5444 46.8358 39.5444C45.0442 39.567 43.5159 39.8625 41.8577 40.5542Z" fill="#B4B1B1"/>
<path d="M24.4176 39.3764C24.5567 39.4191 24.6958 39.4618 24.8392 39.5057C24.9438 39.5382 25.0484 39.5707 25.1562 39.6041C24.4691 40.2949 23.1568 40.5046 22.209 40.5955C21.9305 40.5945 21.652 40.577 21.3744 40.5546C21.3224 40.3978 21.2704 40.241 21.2168 40.0794C22.2695 38.8989 23.013 38.9434 24.4176 39.3764Z" fill="#B4B1B1"/>
</svg>
