<svg width="154" height="20" viewBox="0 0 154 20" fill="none" xmlns="http://www.w3.org/2000/svg">
<g clip-path="url(#clip0_2408_13793)">
<path d="M131.253 7.88908V19.8871H135.089V11.8884H149.113V19.8871H152.949V7.88908H131.253ZM134.65 3.99933H149.442C151.523 3.61583 153.003 1.75313 153.441 0H130.651C131.089 1.75313 132.623 3.56104 134.65 3.99933ZM119.584 19.8871C121.501 19.0653 122.542 17.6408 122.98 15.9973H105.723V0.0547853H101.834V19.8871H119.584ZM73.0713 3.94454H86.7676C88.8495 3.34191 90.5479 1.75313 90.9862 0.0547853H69.2912V11.7788H87.0416V15.8877H73.1262C70.9348 16.4903 69.0721 17.9696 68.1407 19.8871H90.8766V7.88908H73.1262L73.0713 3.94454ZM39.3236 3.99933H54.1156C56.1975 3.61583 57.7315 1.75313 58.115 0H35.2695C35.7078 1.75313 37.2418 3.56104 39.3236 3.99933ZM39.3236 11.8336H54.1156C56.1975 11.4501 57.7315 9.58742 58.115 7.8343H35.2695C35.7078 9.58742 37.2418 11.3954 39.3236 11.8336ZM39.3236 19.8871H54.1156C56.1975 19.5036 57.7315 17.6408 58.115 15.8877H35.2695C35.7078 17.6408 37.2418 19.5036 39.3236 19.8871Z" fill="#B4B1B1"/>
<path d="M0.810547 0.0550294C1.24883 1.80816 2.78282 3.56129 4.80987 3.99957H11.0554L11.3841 4.10914V19.8325H15.2738V4.10914L15.6025 3.99957H21.8481C23.9299 3.45172 25.4091 1.80816 25.8474 0.0550294V0.000244141L0.810547 0.0550294Z" fill="#B4B1B1"/>
</g>
<defs>
<clipPath id="clip0_2408_13793">
<rect width="152.632" height="20" fill="white" transform="translate(0.810547)"/>
</clipPath>
</defs>
</svg>
