<svg width="93" height="32" viewBox="0 0 93 32" fill="none" xmlns="http://www.w3.org/2000/svg">
<g clip-path="url(#clip0_2408_13791)">
<path d="M5.42444 22.854C5.81398 23.8878 6.35328 24.7716 7.04246 25.5057C7.73163 26.2398 8.5481 26.8015 9.49185 27.1911C10.4357 27.5807 11.4619 27.7753 12.5705 27.7753C13.6493 27.7753 14.6605 27.5731 15.6044 27.1686C16.5481 26.764 17.3721 26.1948 18.0762 25.4607C18.7803 24.7266 19.3272 23.8503 19.7167 22.8316C20.1062 21.8127 20.301 20.6743 20.301 19.4158V0H25.0201V31.4607H20.3459V28.5394C19.2973 29.6479 18.0612 30.5018 16.638 31.1012C15.2147 31.7004 13.6792 32 12.0313 32C10.3533 32 8.78777 31.7078 7.33454 31.1235C5.8814 30.5393 4.6229 29.7079 3.55931 28.6292C2.4957 27.5505 1.65666 26.2548 1.04248 24.7416C0.428189 23.2285 0.121094 21.5432 0.121094 19.6854V0H4.84019V19.4158C4.84019 20.6743 5.0349 21.8202 5.42444 22.854ZM33.1545 0V11.4606C34.2031 10.412 35.4167 9.5806 36.795 8.96631C38.1732 8.35202 39.6713 8.04492 41.2893 8.04492C42.9672 8.04492 44.5401 8.35948 46.0083 8.98869C47.4766 9.61789 48.7499 10.4718 49.8286 11.5506C50.9073 12.6293 51.7613 13.9026 52.3905 15.3707C53.0196 16.839 53.3342 18.397 53.3342 20.045C53.3342 21.6928 53.0196 23.2435 52.3905 24.6966C51.7613 26.1497 50.9073 27.4157 49.8286 28.4942C48.7499 29.573 47.4766 30.4269 46.0083 31.0561C44.5401 31.6853 42.9671 31.9999 41.2893 31.9999C39.6712 31.9999 38.1657 31.6928 36.7725 31.0785C35.3793 30.4643 34.1582 29.6329 33.1095 28.5842V31.4606H28.6152V0H33.1545ZM33.6713 23.146C34.0757 24.1049 34.6376 24.9439 35.3567 25.663C36.0759 26.3821 36.9148 26.9514 37.8736 27.3709C38.8324 27.7903 39.8661 28.0001 40.9747 28.0001C42.0535 28.0001 43.0721 27.7903 44.0308 27.3709C44.9896 26.9514 45.8211 26.3822 46.5253 25.663C47.2294 24.944 47.7912 24.1049 48.2107 23.146C48.6301 22.1873 48.8399 21.1537 48.8399 20.045C48.8399 18.9364 48.6301 17.8952 48.2107 16.9214C47.7912 15.9476 47.2294 15.1011 46.5253 14.382C45.8211 13.663 44.9897 13.1011 44.0308 12.6967C43.0719 12.2922 42.0534 12.0898 40.9747 12.0898C39.8961 12.0898 38.8774 12.2922 37.9186 12.6967C36.9598 13.1012 36.1209 13.663 35.4017 14.382C34.6826 15.1011 34.1134 15.9476 33.6938 16.9214C33.2744 17.8952 33.0647 18.9364 33.0647 20.045C33.0645 21.1537 33.2668 22.1873 33.6713 23.146ZM55.8956 15.4158C56.4947 13.9776 57.3189 12.7117 58.3675 11.6181C59.416 10.5245 60.6596 9.66304 62.0978 9.03383C63.5361 8.40462 65.0941 8.09007 66.772 8.09007C68.4199 8.09007 69.9481 8.38972 71.3563 8.98889C72.7645 9.58816 73.978 10.4196 74.9967 11.4834C76.0155 12.547 76.8096 13.8055 77.3787 15.2586C77.948 16.7118 78.2327 18.2923 78.2327 20.0002V21.4834H59.581C59.7309 22.4122 60.0305 23.2737 60.4799 24.0675C60.9294 24.8616 61.4911 25.5507 62.1652 26.135C62.8395 26.7193 63.6035 27.1763 64.4574 27.5058C65.3114 27.8354 66.2177 28.0002 67.1766 28.0002C69.9032 28.0002 72.1054 26.8766 73.7833 24.6293L77.0642 27.0562C75.9257 28.5844 74.5175 29.783 72.8396 30.6518C71.1617 31.5207 69.274 31.9552 67.1767 31.9552C65.4688 31.9552 63.8733 31.6554 62.3901 31.0562C60.907 30.457 59.6186 29.618 58.525 28.5394C57.4313 27.4606 56.57 26.1948 55.9407 24.7416C55.3115 23.2885 54.9969 21.7078 54.9969 20C54.9967 18.3821 55.2964 16.854 55.8956 15.4158ZM62.2103 13.6405C60.9368 14.7041 60.0904 16.1198 59.6709 17.8877H73.6485C73.259 16.1198 72.4274 14.7041 71.154 13.6405C69.8807 12.5769 68.39 12.045 66.6822 12.045C64.9743 12.045 63.4836 12.5769 62.2103 13.6405ZM86.7268 14.1572C85.768 15.206 85.2886 16.6292 85.2886 18.4269V31.4607H80.7492V8.53938H85.2435V11.3708C85.8128 10.442 86.5544 9.70789 87.4683 9.16858C88.3821 8.62919 89.4682 8.35948 90.7268 8.35948H92.2998V12.5842H90.4121C88.9141 12.5843 87.6856 13.1086 86.7268 14.1572Z" fill="#B4B1B1"/>
</g>
<defs>
<clipPath id="clip0_2408_13791">
<rect width="92.6897" height="32" fill="white" transform="translate(0.121094)"/>
</clipPath>
</defs>
</svg>
