<svg width="75" height="48" viewBox="0 0 75 48" fill="none" xmlns="http://www.w3.org/2000/svg">
<path d="M22.8546 38.7046L22.7177 38.8372C20.5687 41.0269 18.0818 42.1837 15.5201 42.1837C10.1699 42.1837 6.28883 38.17 6.28883 32.6339C6.28883 27.1063 10.1699 23.0862 15.5201 23.0862C18.0818 23.0862 20.5687 24.2494 22.7177 26.4477L22.8546 26.5781L26.2952 22.4169L26.2032 22.3057C23.3421 18.925 19.9079 17.2806 15.6868 17.2806C11.4551 17.2806 7.58039 18.7069 4.79199 21.275C1.75555 24.0591 0.158203 27.9851 0.158203 32.6339C0.158203 37.2826 1.75555 41.2172 4.79199 44.0013C7.58039 46.5844 11.4551 48 15.6868 48C19.9079 48 23.3421 46.3535 26.2032 42.9706L26.2952 42.868L22.8546 38.7046Z" fill="#B4B1B1"/>
<path d="M29.7734 47.429H35.8506V17.7573H29.7734V47.429Z" fill="#B4B1B1"/>
<path d="M59.6594 40.9768C58.0364 41.9647 56.5289 42.463 55.1732 42.463C53.2081 42.463 52.3185 41.4237 52.3185 39.1143V23.3697H58.5133V17.7844H52.3185V8.55102L46.3632 11.7414V17.7844H41.2227V23.3697H46.3632V40.1172C46.3632 44.6783 49.0661 47.8003 53.1033 47.8815C55.8425 47.935 57.4933 47.1181 58.494 46.5194L58.5582 46.4788L60.0187 40.7566L59.6594 40.9768Z" fill="#B4B1B1"/>
<path d="M64.6895 47.429H70.7752V17.7573H64.6895V47.429Z" fill="#B4B1B1"/>
<path d="M74.3196 12.5565C68.7664 4.69173 59.5458 0.000202179 50.1649 0.000202179C40.7862 0.000202179 31.5635 4.69173 26.0209 12.5565L25.7344 12.9607H32.7268L32.8037 12.8773C37.5615 7.96339 43.7756 5.36744 50.1649 5.36744C56.5543 5.36744 62.764 7.96339 67.5325 12.8773L67.6095 12.9607H74.5976L74.3196 12.5565Z" fill="#B4B1B1"/>
</svg>
