<svg width="133" height="24" viewBox="0 0 133 24" fill="none" xmlns="http://www.w3.org/2000/svg">
<g clip-path="url(#clip0_2408_13777)">
<path d="M18.7537 8.54063V8.36982C18.7537 6.14913 18.0704 4.2701 16.7038 2.98894C15.1664 1.53697 12.8603 0.768271 10.1272 0.768271H0.988281V23.9145H6.19832V16.3984H9.18769L13.629 23.9145H19.5223L14.3977 15.3734C16.3622 14.434 18.7537 12.5549 18.7537 8.54063ZM13.5436 8.62604C13.5436 10.7613 12.0917 12.0425 9.70012 12.0425H6.19832V5.29503H9.70012C12.1771 5.29503 13.5436 6.40536 13.5436 8.62604ZM91.9508 0.682861L83.2386 23.9145H88.4484L90.2426 18.9607H98.3563L100.15 23.9145H105.531L96.8186 0.682861H91.9508ZM96.7334 14.6048H91.7794L94.2564 7.5157L96.7334 14.6048ZM120.648 12.1279L127.567 0.853679H121.844L117.744 8.19899L113.73 0.853679H107.751L114.584 12.2133L107.41 23.9999H113.132L117.488 16.2276L121.844 23.9999H127.737L120.648 12.1279ZM29.4299 19.4731V14.5194H38.7397V10.078H29.4299V5.29503H39.9355V0.768271H24.3054V23.9145H34.0422L36.4336 19.4731H29.4299ZM73.8434 0.768271L68.6333 8.28441L63.338 0.768271H63.2526L57.9571 10.8467V23.9145H62.9962V9.56551L68.4625 16.6546V16.74H68.7188L74.2705 9.56551V23.9145H79.3097V0.768271H73.8434Z" fill="#B4B1B1"/>
<path d="M51.5516 0.768066L39.3379 23.9143H45.6582L57.8719 0.768066H51.5516Z" fill="#B4B1B1"/>
<path d="M130.299 0.000244141C129.36 0.000244141 128.591 0.768939 128.591 1.70846C128.591 2.64797 129.36 3.41666 130.299 3.41666C131.239 3.41666 132.007 2.64797 132.007 1.70846C132.007 0.768939 131.239 0.000244141 130.299 0.000244141ZM130.299 3.16043C129.531 3.16043 128.933 2.56256 128.933 1.70846C128.933 0.939762 129.531 0.256475 130.299 0.256475C131.068 0.256475 131.666 0.939762 131.666 1.70846C131.666 2.47715 131.068 3.16043 130.299 3.16043ZM130.641 1.79386C130.812 1.70846 130.983 1.53763 130.983 1.28141C130.983 1.11058 130.897 0.939761 130.812 0.854346C130.726 0.768939 130.47 0.683528 130.214 0.683528C129.958 0.683528 129.787 0.683526 129.701 0.768937V2.64797H130.043V1.79386H130.299C130.556 1.79386 130.641 1.87928 130.726 2.13551C130.726 2.39174 130.812 2.56256 130.897 2.64797H131.239C131.239 2.56256 131.153 2.47714 131.153 2.22091C130.897 1.96469 130.812 1.79386 130.641 1.79386ZM130.214 1.62304H129.958V1.02517C130.043 1.02517 130.043 1.02517 130.214 1.02517C130.556 1.02517 130.726 1.19599 130.726 1.36681C130.641 1.53763 130.47 1.62304 130.214 1.62304Z" fill="#B4B1B1"/>
</g>
<defs>
<clipPath id="clip0_2408_13777">
<rect width="131.586" height="24" fill="white" transform="translate(0.988281)"/>
</clipPath>
</defs>
</svg>
