<svg width="148" height="48" viewBox="0 0 148 48" fill="none" xmlns="http://www.w3.org/2000/svg">
<g clip-path="url(#clip0_2408_13781)">
<path d="M62.9769 25.2597C62.9769 32.1655 57.5744 37.2543 50.9445 37.2543C44.3145 37.2543 38.9121 32.1655 38.9121 25.2597C38.9121 18.3052 44.3145 13.2651 50.9445 13.2651C57.5744 13.2651 62.9769 18.3052 62.9769 25.2597ZM57.7097 25.2597C57.7097 20.9442 54.5786 17.9916 50.9445 17.9916C47.3105 17.9916 44.1792 20.9442 44.1792 25.2597C44.1792 29.5318 47.3105 32.5278 50.9445 32.5278C54.5786 32.5278 57.7097 29.5264 57.7097 25.2597Z" fill="#B4B1B1"/>
<path d="M88.9339 25.2597C88.9339 32.1655 83.5315 37.2543 76.9015 37.2543C70.2717 37.2543 64.8691 32.1655 64.8691 25.2597C64.8691 18.3106 70.2717 13.2651 76.9015 13.2651C83.5315 13.2651 88.9339 18.3052 88.9339 25.2597ZM83.6668 25.2597C83.6668 20.9442 80.5356 17.9916 76.9015 17.9916C73.2675 17.9916 70.1364 20.9442 70.1364 25.2597C70.1364 29.5318 73.2675 32.5278 76.9015 32.5278C80.5356 32.5278 83.6668 29.5264 83.6668 25.2597Z" fill="#B4B1B1"/>
<path d="M113.811 13.9898V35.5237C113.811 44.3817 108.586 47.9995 102.411 47.9995C96.5974 47.9995 93.0985 44.1114 91.779 40.9315L96.3649 39.0226C97.1814 40.9747 99.1824 43.2786 102.405 43.2786C106.359 43.2786 108.808 40.8396 108.808 36.2484V34.5232H108.624C107.445 35.9779 105.174 37.2489 102.308 37.2489C96.3108 37.2489 90.8164 32.0248 90.8164 25.3029C90.8164 18.5323 96.3108 13.2651 102.308 13.2651C105.169 13.2651 107.44 14.536 108.624 15.9474H108.808V13.9952H113.811V13.9898ZM109.181 25.3029C109.181 21.0795 106.364 17.9916 102.778 17.9916C99.1444 17.9916 96.0999 21.0795 96.0999 25.3029C96.0999 29.4832 99.1444 32.5278 102.778 32.5278C106.364 32.5278 109.181 29.4832 109.181 25.3029Z" fill="#B4B1B1"/>
<path d="M122.057 1.36914V36.52H116.92V1.36914H122.057Z" fill="#B4B1B1"/>
<path d="M142.075 29.2084L146.164 31.9339C144.844 33.8861 141.664 37.2497 136.17 37.2497C129.356 37.2497 124.268 31.9826 124.268 25.2553C124.268 18.1223 129.4 13.2607 135.581 13.2607C141.805 13.2607 144.85 18.2143 145.845 20.8912L146.391 22.2539L130.357 28.8947C131.584 31.3012 133.493 32.5288 136.17 32.5288C138.852 32.5288 140.713 31.2092 142.075 29.2084ZM129.491 24.8929L140.21 20.4422C139.62 18.9443 137.847 17.9006 135.759 17.9006C133.082 17.9006 129.356 20.2639 129.491 24.8929Z" fill="#B4B1B1"/>
<path d="M19.4647 22.1395V17.0508H36.6128C36.7805 17.9377 36.8671 18.9869 36.8671 20.1225C36.8671 23.9405 35.8234 28.6614 32.4596 32.025C29.188 35.4319 25.0076 37.2491 19.4701 37.2491C9.20606 37.2491 0.575195 28.8885 0.575195 18.6245C0.575195 8.36047 9.20606 0 19.4701 0C25.1483 0 29.1934 2.22802 32.2325 5.13201L28.6417 8.7228C26.4623 6.67864 23.5097 5.08875 19.4647 5.08875C11.9695 5.08875 6.10739 11.1293 6.10739 18.6245C6.10739 26.1198 11.9695 32.1603 19.4647 32.1603C24.3263 32.1603 27.095 30.208 28.8689 28.4343C30.3073 26.9958 31.2538 24.9408 31.6268 22.1341L19.4647 22.1395Z" fill="#B4B1B1"/>
</g>
<defs>
<clipPath id="clip0_2408_13781">
<rect width="147" height="48" fill="white" transform="translate(0.575195)"/>
</clipPath>
</defs>
</svg>
