<svg width="54" height="38" viewBox="0 0 54 38" fill="none" xmlns="http://www.w3.org/2000/svg">
<mask id="mask0_483_4537" style="mask-type:luminance" maskUnits="userSpaceOnUse" x="0" y="0" width="54" height="38">
<path d="M0.70166 0.504944H53.6559V37.495H0.70166V0.504944Z" fill="white"/>
</mask>
<g mask="url(#mask0_483_4537)">
<path fill-rule="evenodd" clip-rule="evenodd" d="M22.6901 4.55513C24.3995 2.77571 26.7785 1.67379 29.4068 1.67379C32.9111 1.67379 35.9482 3.62064 37.5835 6.52144C39.0352 5.87251 40.6075 5.53748 42.1976 5.53828C48.5053 5.53828 53.6255 10.6974 53.6255 17.0636C53.6255 23.4298 48.5053 28.589 42.1976 28.589C41.4266 28.589 40.6751 28.5115 39.9392 28.3651C38.5083 30.9154 35.773 32.6481 32.658 32.6481C31.3898 32.6506 30.1378 32.363 28.9979 31.8071C27.5475 35.2141 24.1697 37.6087 20.2371 37.6087C16.1293 37.6087 12.6444 35.0194 11.3011 31.3788C10.7032 31.505 10.0938 31.5684 9.48273 31.568C4.59614 31.568 0.644043 27.5575 0.644043 22.632C0.644043 19.3224 2.42346 16.441 5.06339 14.8835C4.50333 13.5934 4.21504 12.2017 4.21651 10.7952C4.21651 5.11037 8.83054 0.515808 14.5153 0.515808C17.8444 0.515808 20.8231 2.10249 22.6921 4.56525" fill="#B4B1B1"/>
</g>
<path fill-rule="evenodd" clip-rule="evenodd" d="M8.3597 19.7399C8.32641 19.8267 8.37157 19.8448 8.38228 19.8602C8.48176 19.9322 8.58281 19.9844 8.68404 20.043C9.22527 20.3292 9.73534 20.4129 10.2688 20.4129C11.3551 20.4129 12.0307 19.8347 12.0307 18.9041V18.8858C12.0307 18.0253 11.2675 17.7118 10.555 17.488L10.4617 17.4578C9.92243 17.283 9.45713 17.1307 9.45713 16.7764V16.7583C9.45713 16.4546 9.72969 16.2307 10.1502 16.2307C10.6175 16.2307 11.1743 16.3862 11.5305 16.5831C11.5305 16.5831 11.636 16.6512 11.6744 16.5494C11.6952 16.4943 11.8769 16.0082 11.8963 15.9536C11.917 15.8966 11.8808 15.8536 11.8436 15.8314C11.4347 15.5822 10.8702 15.4128 10.2861 15.4128L10.1777 15.4132C9.18282 15.4132 8.4878 16.0148 8.4878 16.8753V16.8938C8.4878 17.801 9.25486 18.0969 9.9713 18.3013L10.0866 18.3372C10.6083 18.4976 11.06 18.637 11.06 19.003V19.0213C11.06 19.3581 10.766 19.6092 10.2949 19.6092C10.1117 19.6092 9.52781 19.6061 8.89508 19.2062C8.81857 19.1617 8.77496 19.1295 8.71597 19.0935C8.68482 19.0746 8.60695 19.0406 8.57307 19.1426L8.35892 19.7383M24.2647 19.7383C24.2314 19.8251 24.2765 19.8433 24.2876 19.8586C24.3867 19.9307 24.4882 19.9828 24.5894 20.0414C25.1306 20.3276 25.6407 20.4113 26.1741 20.4113C27.2605 20.4113 27.936 19.8331 27.936 18.9025V18.8842C27.936 18.0237 27.1748 17.7103 26.4603 17.4864L26.3671 17.4562C25.8278 17.2814 25.3625 17.1292 25.3625 16.7748V16.7567C25.3625 16.453 25.635 16.2291 26.0556 16.2291C26.5228 16.2291 27.0777 16.3847 27.4359 16.5815C27.4359 16.5815 27.5414 16.6496 27.5799 16.5478C27.6006 16.4927 27.7824 16.0066 27.7999 15.9521C27.8208 15.895 27.7844 15.852 27.7474 15.8298C27.3385 15.5806 26.774 15.4113 26.1899 15.4113L26.0813 15.4116C25.0864 15.4116 24.3914 16.0132 24.3914 16.8737V16.8922C24.3914 17.7995 25.1585 18.0954 25.8749 18.2998L25.99 18.3356C26.5137 18.496 26.9634 18.6354 26.9634 19.0014V19.0197C26.9634 19.3565 26.6694 19.6077 26.1983 19.6077C26.0147 19.6077 25.4293 19.6046 24.7985 19.2047C24.722 19.1601 24.6772 19.1293 24.6192 19.092C24.5995 19.0795 24.5078 19.0437 24.4765 19.141L24.2623 19.7368M35.1257 17.9145C35.1257 18.4402 35.0276 18.8548 34.8357 19.1488C34.6441 19.4389 34.3548 19.581 33.9518 19.581C33.5488 19.581 33.2607 19.4401 33.0718 19.1508C32.8816 18.8587 32.7856 18.4421 32.7856 17.9165C32.7856 17.3908 32.8822 16.9781 33.0718 16.688C33.2603 16.3999 33.5468 16.2616 33.9518 16.2616C34.3567 16.2616 34.6449 16.4012 34.8357 16.688C35.0288 16.9781 35.1257 17.3908 35.1257 17.9165M36.033 16.9411C35.9436 16.6393 35.8052 16.3746 35.6202 16.1526C35.4351 15.9307 35.2017 15.7516 34.9233 15.6231C34.6468 15.4936 34.3197 15.4284 33.9498 15.4284C33.5799 15.4284 33.2548 15.494 32.9764 15.6231C32.7 15.7523 32.4644 15.9307 32.2794 16.1526C32.0949 16.3746 31.9563 16.6393 31.8667 16.9411C31.7781 17.2409 31.7332 17.568 31.7332 17.9165C31.7332 18.2649 31.7781 18.592 31.8667 18.8918C31.9557 19.1936 32.0945 19.4584 32.2794 19.6803C32.4646 19.9022 32.7 20.0794 32.9764 20.206C33.2548 20.3321 33.5819 20.3964 33.9498 20.3964C34.3178 20.3964 34.6449 20.3321 34.9213 20.206C35.1978 20.0798 35.4333 19.9022 35.6183 19.6803C35.803 19.4584 35.9415 19.1936 36.031 18.8918C36.1194 18.592 36.1644 18.2649 36.1644 17.9165C36.1644 17.5699 36.1194 17.2409 36.031 16.9411M43.4874 19.4331C43.4577 19.3449 43.3716 19.3782 43.3716 19.3782C43.2398 19.4286 43.099 19.4753 42.9491 19.4987C42.7981 19.5224 42.6299 19.5343 42.4527 19.5343C42.0147 19.5343 41.6642 19.4037 41.415 19.1449C41.1639 18.886 41.0237 18.4694 41.0257 17.9048C41.027 17.3908 41.1512 17.0053 41.3741 16.7094C41.5941 16.4174 41.9329 16.2655 42.3807 16.2655C42.7545 16.2655 43.0406 16.3089 43.3405 16.4028C43.3405 16.4028 43.4115 16.4337 43.4456 16.3401C43.5252 16.1201 43.584 15.9624 43.6695 15.721C43.6936 15.6519 43.6344 15.6227 43.6128 15.6143C43.4952 15.5684 43.2176 15.493 43.0074 15.4613C42.8107 15.4313 42.5829 15.4157 42.326 15.4157C41.9444 15.4157 41.6056 15.481 41.3155 15.6102C41.0255 15.7393 40.7802 15.9178 40.5855 16.1398C40.3908 16.3617 40.2428 16.6265 40.1435 16.9282C40.0452 17.2281 39.9956 17.5571 39.9956 17.9056C39.9956 18.657 40.1981 19.2664 40.5991 19.7122C41.0002 20.16 41.6037 20.3858 42.3902 20.3858C42.8555 20.3858 43.3325 20.2918 43.6751 20.1561C43.6751 20.1561 43.7405 20.1246 43.7121 20.0483L43.4882 19.4331M45.0749 17.4083C45.1183 17.1163 45.1983 16.8729 45.3241 16.6841C45.5124 16.396 45.7991 16.2383 46.2021 16.2383C46.6051 16.2383 46.8718 16.3967 47.0626 16.6841C47.1892 16.8739 47.2445 17.126 47.2651 17.4083L45.0652 17.4079L45.0749 17.4083ZM48.1315 16.7659C48.0542 16.4758 47.8628 16.1818 47.7382 16.0475C47.5396 15.8353 47.3469 15.6854 47.1541 15.6036C46.8759 15.4853 46.5765 15.4246 46.2742 15.4251C45.8906 15.4251 45.5421 15.4899 45.2599 15.6217C44.9776 15.7545 44.74 15.9352 44.5532 16.161C44.3664 16.3868 44.2261 16.6535 44.1365 16.9592C44.047 17.261 44.0018 17.5919 44.0018 17.9385C44.0018 18.2928 44.0487 18.6218 44.141 18.9197C44.2343 19.2195 44.3844 19.4823 44.5868 19.7004C44.7893 19.9203 45.0482 20.0917 45.3597 20.2124C45.6693 20.3321 46.045 20.3942 46.4753 20.3928C47.363 20.3899 47.8303 20.1923 48.0211 20.0852C48.0551 20.0662 48.0873 20.0333 48.0472 19.9385L47.8466 19.3758C47.8159 19.2919 47.731 19.3223 47.731 19.3223C47.511 19.4044 47.1995 19.552 46.4694 19.5501C45.9925 19.5493 45.6401 19.4085 45.4181 19.1879C45.1923 18.9621 45.0794 18.6331 45.0619 18.1658L48.1379 18.1682C48.1379 18.1682 48.2189 18.1674 48.2272 18.0884C48.2305 18.0557 48.3326 17.4576 48.1355 16.7665L48.1315 16.7659ZM20.4862 17.4083C20.5296 17.1163 20.6098 16.8729 20.7354 16.6841C20.9239 16.396 21.2104 16.2383 21.6134 16.2383C22.0164 16.2383 22.2832 16.3967 22.474 16.6841C22.6003 16.8739 22.6556 17.126 22.6764 17.4083L20.4765 17.4079L20.4862 17.4083ZM23.5428 16.7659C23.4657 16.4758 23.2741 16.1818 23.1495 16.0475C22.9509 15.8353 22.7582 15.6854 22.5655 15.6036C22.2872 15.4853 21.9878 15.4246 21.6855 15.4251C21.3019 15.4251 20.9535 15.4899 20.6712 15.6217C20.3889 15.7545 20.1514 15.9352 19.9645 16.161C19.7782 16.3868 19.6374 16.6535 19.5478 16.9592C19.4585 17.261 19.4135 17.5919 19.4135 17.9385C19.4135 18.2928 19.46 18.6218 19.5529 18.9197C19.646 19.2195 19.7963 19.4823 19.9968 19.7004C20.1993 19.9203 20.4582 20.0917 20.7697 20.2124C21.0792 20.3321 21.453 20.3942 21.8852 20.3928C22.773 20.3899 23.2402 20.1923 23.431 20.0852C23.4649 20.0662 23.4972 20.0333 23.4569 19.9385L23.2564 19.3758C23.2254 19.2919 23.1406 19.3223 23.1406 19.3223C22.9206 19.4044 22.6091 19.552 21.879 19.5501C21.404 19.5493 21.0496 19.4085 20.8277 19.1879C20.6019 18.9621 20.4889 18.6331 20.4714 18.1658L23.5474 18.1682C23.5474 18.1682 23.6284 18.1674 23.6368 18.0884C23.6401 18.0557 23.7421 17.4576 23.5449 16.7665L23.5428 16.7659ZM13.8475 19.4136C13.727 19.3174 13.7102 19.2939 13.6703 19.2314C13.6094 19.1373 13.5782 19.0036 13.5782 18.8323C13.5782 18.5636 13.6678 18.3689 13.8527 18.2385C13.8508 18.2389 14.1175 18.0087 14.7444 18.0165C15.0234 18.0215 15.3018 18.0453 15.5776 18.0876V19.4835H15.578C15.578 19.4835 15.1887 19.5674 14.7487 19.5939C14.1237 19.6314 13.8473 19.414 13.8492 19.4146L13.8475 19.4136ZM15.0701 17.2526C14.9455 17.2434 14.7839 17.239 14.5912 17.239C14.3283 17.239 14.0733 17.2717 13.8358 17.3359C13.5963 17.4005 13.3802 17.5006 13.1953 17.6338C13.0098 17.7661 12.8573 17.9393 12.7494 18.14C12.6406 18.3424 12.5851 18.5799 12.5851 18.8486C12.5851 19.1212 12.6324 19.3567 12.7259 19.5495C12.8175 19.7406 12.9553 19.9059 13.1269 20.0303C13.2977 20.1546 13.5085 20.2464 13.7519 20.301C13.9933 20.3561 14.2658 20.3839 14.5657 20.3839C14.8811 20.3839 15.1945 20.3574 15.4982 20.3062C15.7569 20.2616 16.0146 20.2115 16.2711 20.1559C16.3735 20.1324 16.4872 20.1014 16.4872 20.1014C16.5631 20.0821 16.5573 20.0009 16.5573 20.0009L16.5555 17.1975C16.5555 16.5823 16.3912 16.1248 16.0669 15.8425C15.7437 15.5602 15.2706 15.4181 14.6574 15.4181C14.4276 15.4181 14.0558 15.4492 13.8338 15.4938C13.8338 15.4938 13.1641 15.6238 12.8877 15.8403C12.8877 15.8403 12.8269 15.8777 12.86 15.9624L13.0781 16.5465C13.1051 16.6222 13.1789 16.5963 13.1789 16.5963C13.1789 16.5963 13.2021 16.5872 13.2293 16.571C13.8192 16.2498 14.5668 16.2595 14.5668 16.2595C14.8978 16.2595 15.1548 16.3267 15.3261 16.4581C15.4937 16.5868 15.5792 16.7813 15.5792 17.1901V17.3199C15.3164 17.2818 15.073 17.2598 15.073 17.2598L15.0701 17.2526ZM39.7951 15.6698C39.7995 15.6595 39.8018 15.6485 39.8019 15.6373C39.8019 15.6261 39.7997 15.615 39.7954 15.6047C39.7911 15.5944 39.7848 15.5851 39.7768 15.5772C39.7688 15.5694 39.7593 15.5633 39.7489 15.5592C39.6965 15.5394 39.4355 15.4843 39.2349 15.4718C38.8495 15.4477 38.6353 15.5127 38.4426 15.5991C38.2522 15.685 38.0415 15.823 37.9247 15.9827L37.9243 15.6089C37.9243 15.5575 37.8879 15.516 37.8361 15.516H37.0496C36.9986 15.516 36.9616 15.5575 36.9616 15.6089V20.184C36.9617 20.2087 36.9715 20.2324 36.989 20.2498C37.0065 20.2673 37.0301 20.2772 37.0549 20.2772H37.8609C37.8856 20.2772 37.9092 20.2673 37.9267 20.2498C37.9441 20.2323 37.9539 20.2086 37.9539 20.184V17.8867C37.9539 17.5791 37.9878 17.2734 38.0554 17.0807C38.1219 16.8901 38.2125 16.738 38.324 16.629C38.4304 16.5237 38.5607 16.4456 38.7036 16.4012C38.8378 16.3627 38.9768 16.3432 39.1164 16.3432C39.277 16.3432 39.4532 16.3845 39.4532 16.3845C39.5124 16.3911 39.5453 16.3549 39.5653 16.3015C39.6181 16.1612 39.7678 15.7409 39.797 15.6571" fill="white"/>
<path fill-rule="evenodd" clip-rule="evenodd" d="M32.2679 13.5579C32.1683 13.5278 32.0669 13.5038 31.9644 13.4859C31.8265 13.4629 31.6868 13.4521 31.547 13.4536C30.9915 13.4536 30.5537 13.6105 30.2463 13.9204C29.941 14.228 29.7333 14.6966 29.6291 15.3132L29.5916 15.5213H28.8944C28.8944 15.5213 28.8093 15.5178 28.7914 15.6107L28.6769 16.2492C28.669 16.3104 28.6952 16.3485 28.777 16.3481H29.4557L28.7671 20.1918C28.7131 20.5014 28.6514 20.756 28.5831 20.9489C28.5157 21.1393 28.4499 21.282 28.3689 21.3856C28.2905 21.4859 28.2161 21.5597 28.0878 21.6027C27.9819 21.6383 27.86 21.6547 27.7265 21.6547C27.6521 21.6547 27.5532 21.6422 27.4802 21.6276C27.4072 21.6132 27.3692 21.5968 27.3145 21.5739C27.3145 21.5739 27.2349 21.5435 27.2036 21.6233C27.1781 21.6885 26.9972 22.186 26.9758 22.2475C26.954 22.3082 26.9845 22.3561 27.0231 22.3699C27.1134 22.4023 27.1806 22.4229 27.3036 22.4519C27.4746 22.4922 27.6186 22.4947 27.7535 22.4947C28.0362 22.4947 28.2938 22.455 28.5074 22.3779C28.7223 22.3002 28.9094 22.1649 29.0749 21.9817C29.2538 21.7841 29.3663 21.5772 29.474 21.2949C29.5805 21.0151 29.6712 20.6678 29.7438 20.2631L30.4357 16.3481H31.4473C31.4473 16.3481 31.5326 16.3513 31.5503 16.2588L31.6648 15.6202C31.6727 15.5591 31.6467 15.5209 31.5645 15.5213H30.5827C30.5876 15.4991 30.6322 15.1538 30.7449 14.8286C30.793 14.6898 30.8835 14.5779 30.9602 14.501C31.0318 14.4277 31.12 14.3728 31.2174 14.3409C31.3241 14.308 31.4353 14.2919 31.547 14.2934C31.6395 14.2934 31.7302 14.3045 31.7993 14.3189C31.8945 14.3392 31.9315 14.3499 31.9564 14.3573C32.0565 14.3879 32.0699 14.3583 32.0896 14.3098L32.3244 13.665C32.3485 13.5957 32.2897 13.5665 32.2679 13.5579ZM18.5477 20.2C18.5477 20.2514 18.5111 20.2932 18.4597 20.2932H17.6453C17.5937 20.2932 17.5571 20.2514 17.5571 20.2V13.6453C17.5571 13.5941 17.5937 13.5527 17.6453 13.5527H18.4597C18.5111 13.5527 18.5477 13.5941 18.5477 13.6453V20.2Z" fill="white"/>
</svg>
